<svg xmlns="http://www.w3.org/2000/svg" viewBox="0 0 200 200" fill="none">
  <!-- Background Circle -->
  <circle cx="100" cy="100" r="95" fill="#1e40af" opacity="0.1"/>
  
  <!-- Main Logo Shape - Newspaper + Graph Hybrid -->
  <g id="newspaper-base">
    <!-- Newspaper outline -->
    <rect x="50" y="55" width="100" height="90" rx="4" fill="#1e40af" stroke="#1e40af" stroke-width="2"/>
    <rect x="55" y="60" width="90" height="80" rx="2" fill="white"/>
    
    <!-- Newspaper lines (text representation) -->
    <line x1="62" y1="70" x2="105" y2="70" stroke="#1e40af" stroke-width="2" stroke-linecap="round"/>
    <line x1="62" y1="78" x2="95" y2="78" stroke="#1e40af" stroke-width="1.5" stroke-linecap="round" opacity="0.6"/>
    <line x1="62" y1="85" x2="100" y2="85" stroke="#1e40af" stroke-width="1.5" stroke-linecap="round" opacity="0.6"/>
  </g>
  
  <!-- Rising graph line overlay -->
  <g id="graph-line">
    <polyline 
      points="65,120 80,110 95,115 110,100 125,105 135,90" 
      stroke="#059669" 
      stroke-width="3" 
      fill="none" 
      stroke-linecap="round"
      stroke-linejoin="round"
    />
    <!-- Data points -->
    <circle cx="65" cy="120" r="3" fill="#059669"/>
    <circle cx="80" cy="110" r="3" fill="#059669"/>
    <circle cx="95" cy="115" r="3" fill="#059669"/>
    <circle cx="110" cy="100" r="3" fill="#059669"/>
    <circle cx="125" cy="105" r="3" fill="#059669"/>
    <circle cx="135" cy="90" r="4" fill="#059669"/>
  </g>
  
  <!-- Decorative elements -->
  <g id="decorative">
    <!-- Small accent dots -->
    <circle cx="115" cy="70" r="2" fill="#059669" opacity="0.8"/>
    <circle cx="125" cy="73" r="2" fill="#059669" opacity="0.6"/>
    <circle cx="135" cy="68" r="2" fill="#059669" opacity="0.8"/>
  </g>
</svg>
